<?xml version="1.0" encoding="UTF-8"?>
<svg version="1.1" xmlns="http://www.w3.org/2000/svg" width="2000" height="2000">
<path d="M0 0 C660 0 1320 0 2000 0 C2000 660 2000 1320 2000 2000 C1340 2000 680 2000 0 2000 C0 1340 0 680 0 0 Z " fill="#FEFEFE" transform="translate(0,0)"/>
<path d="M0 0 C3.57181629 3.43322729 6.59242289 6.95226963 9.5625 10.9375 C19.16884977 23.62879342 29.49434075 36.05960419 42 46 C40.68822919 49.93531242 38.88290945 50.70898597 35.5 53.0625 C19.02307063 65.01096931 7.57043682 84.08454622 4.2421875 104.2578125 C2.15935603 127.84083981 7.48611987 149.73817357 22.1875 168.625 C33.07418867 181.38057022 47.69943061 190.86342334 64 195 C64.61188612 195.16610464 65.22377224 195.33220928 65.85420036 195.5033474 C74.51288068 197.56642406 83.27636712 197.30848224 92.11767578 197.31884766 C93.94179218 197.32815812 95.76590436 197.33832843 97.5900116 197.34928894 C102.51693933 197.37647699 107.44383865 197.39170501 112.37082148 197.40471697 C117.52913815 197.42039671 122.68739722 197.4471714 127.84567261 197.4727478 C137.60241682 197.51945007 147.35917197 197.55623548 157.11597049 197.58942068 C168.22848133 197.62770262 179.34093419 197.67709682 190.45339608 197.72740483 C213.30222103 197.83059744 236.15108325 197.91989891 259 198 C259.00238835 198.95784016 259.00477671 199.91568031 259.00723743 200.90254593 C259.06610748 224.24001 259.14203663 247.57737145 259.23571491 270.91472244 C259.28062518 282.20062576 259.32005085 293.48649785 259.34643555 304.77246094 C259.36945424 314.6126141 259.40289549 324.45266806 259.44870156 334.29274249 C259.47258155 339.49997842 259.49134454 344.70711643 259.49761391 349.91440582 C259.50368841 354.82279714 259.52377336 359.73093807 259.55427551 364.63923645 C259.56301794 366.43379219 259.56678625 368.2283807 259.56500816 370.02295685 C259.55839565 379.78244889 259.95766559 388.61413253 263 398 C263.37640625 399.1859375 263.7528125 400.371875 264.140625 401.59375 C272.97228693 424.73021645 288.1635556 439.07866242 310.2578125 449.54296875 C330.24014141 457.91394438 351.47881391 456.48240627 371.25 448.6875 C391.35044139 439.71166014 406.47379326 425.53568086 415 405 C418.44533556 395.3928143 420.13103474 386.39443603 420.20532227 376.21899414 C420.21522186 375.36941132 420.22512146 374.51982849 420.23532104 373.64450073 C420.26671224 370.85808016 420.29160424 368.07164259 420.31640625 365.28515625 C420.33699514 363.3445951 420.35799211 361.40403824 420.37937927 359.46348572 C420.43440014 354.37217701 420.48389703 349.28082917 420.53222656 344.18945312 C420.58258809 338.98759506 420.63819746 333.78579336 420.69335938 328.58398438 C420.80069627 318.38937114 420.90219493 308.19470883 421 298 C426.48853627 303.46460916 426.48853627 303.46460916 428.796875 306.19921875 C429.27527832 306.76286133 429.75368164 307.32650391 430.24658203 307.90722656 C430.74270996 308.4947168 431.23883789 309.08220703 431.75 309.6875 C432.8247899 310.94723857 433.90031408 312.20635103 434.9765625 313.46484375 C435.75821777 314.37919189 435.75821777 314.37919189 436.55566406 315.31201172 C455.08306411 337.75010769 455.08306411 337.75010769 478.05688477 355.08325195 C480.52524742 356.53376691 482.19518173 357.76523533 484 360 C485.09228809 364.58343268 484.89538247 369.00219517 484.6875 373.6875 C484.65551514 374.98518311 484.62353027 376.28286621 484.59057617 377.61987305 C483.36005744 414.96878142 469.35001196 448.60788096 444 476 C443.20207031 476.89203125 442.40414063 477.7840625 441.58203125 478.703125 C429.92375621 491.14396928 415.38475995 499.97797993 400 507 C399.08476563 507.46792969 398.16953125 507.93585938 397.2265625 508.41796875 C379.60485913 517.22882043 359.29898534 519.46946028 339.875 519.5 C338.62277145 519.50252274 338.62277145 519.50252274 337.34524536 519.50509644 C303.71422493 519.43487884 272.49734324 508.10928059 247 486 C246.17113281 485.29230469 245.34226562 484.58460938 244.48828125 483.85546875 C218.01641711 460.70778969 199.34130192 426.25497671 196 391 C195.85864857 386.75702878 195.87365416 382.51669667 195.88647461 378.27172852 C195.88632858 377.00274216 195.88618256 375.7337558 195.8860321 374.42631531 C195.88574637 370.96401599 195.89160691 367.50175164 195.89860606 364.03946042 C195.90487687 360.41465004 195.90544634 356.78983877 195.90663147 353.1650238 C195.90973382 346.30871796 195.91793239 339.45242815 195.92798096 332.59612936 C195.93917619 324.78716982 195.94466113 316.9782095 195.94967639 309.16924393 C195.96011596 293.11281992 195.97769411 277.05641201 196 261 C195.3438417 261.00276538 194.68768339 261.00553076 194.0116415 261.00837994 C177.98361182 261.07487661 161.95563068 261.12439508 145.92749691 261.15543652 C138.17614194 261.17085015 130.42487952 261.19183321 122.67358398 261.22631836 C115.91092583 261.25639055 109.14833477 261.2756149 102.38561159 261.28226548 C98.81079674 261.28614786 95.23617368 261.29515429 91.66142082 261.31719017 C63.80527479 261.48230078 63.80527479 261.48230078 51 258 C49.12637047 257.61821158 47.25154424 257.24219439 45.375 256.875 C29.76444177 252.81457178 15.16594337 245.1836072 2 236 C1.44441406 235.6179541 0.88882813 235.2359082 0.31640625 234.84228516 C-20.00936097 220.67639523 -35.93529986 201.54331099 -46.09863281 178.99169922 C-46.69596868 177.67180051 -47.30720019 176.35809635 -47.93261719 175.05126953 C-61.57899656 146.52506062 -64.1799549 108.37873188 -55 78 C-54.80164551 77.30213379 -54.60329102 76.60426758 -54.39892578 75.88525391 C-49.5398563 59.13557367 -41.05930628 42.47527526 -30 29 C-29.18144531 27.97003906 -28.36289062 26.94007813 -27.51953125 25.87890625 C-22.7681992 20.0034722 -17.73013824 14.57576365 -12.1875 9.4375 C-11.66067627 8.94902588 -11.13385254 8.46055176 -10.59106445 7.95727539 C-7.2403707 4.92997299 -3.79789287 2.41271221 0 0 Z " fill="#0B8FAC" transform="translate(660,698)"/>
<path d="M0 0 C1.31959717 0.00749268 2.63919434 0.01498535 3.9987793 0.02270508 C19.2039482 0.19107657 32.66349359 2.49160188 47.0625 7.25 C48.05419189 7.56662598 48.05419189 7.56662598 49.06591797 7.88964844 C64.79439709 12.97194017 79.72322167 21.21307841 92.0625 32.25 C92.87589844 32.95640625 93.68929688 33.6628125 94.52734375 34.390625 C97.0777078 36.63840348 99.57665049 38.9311685 102.0625 41.25 C102.8875 42.00925781 103.7125 42.76851563 104.5625 43.55078125 C128.98483862 66.86648265 144.33328597 103.04545479 145.32382202 136.60601807 C145.44557829 144.0422464 145.40070639 151.47732718 145.35546875 158.9140625 C145.34817184 161.64602413 145.34544891 164.37798542 145.34260559 167.10995483 C145.33336432 173.51617935 145.30886065 179.92224616 145.27855712 186.32840192 C145.24476296 193.63458294 145.22846493 200.94077238 145.21347082 208.24701238 C145.18230172 223.24809539 145.12969947 238.24903175 145.0625 253.25 C145.66804277 253.24907821 146.27358555 253.24815641 146.8974781 253.24720669 C161.69008209 253.22503977 176.48268445 253.20853428 191.27530098 253.19818783 C198.42914556 253.19305028 205.58297899 253.1860565 212.73681641 253.17456055 C218.97831317 253.16453554 225.21980186 253.15812813 231.46130645 253.15591151 C234.76047191 253.15461756 238.05960913 253.1510764 241.35876846 253.14426994 C286.69152828 253.05451675 325.3182348 262.82932039 359.0625 294.9375 C376.25782366 312.69545184 389.01357125 334.61048912 396.0625 358.25 C396.27567871 358.9517334 396.48885742 359.6534668 396.70849609 360.37646484 C403.64198752 384.42099935 402.32621107 413.51653744 395.0625 437.25 C394.80936035 438.09771973 394.5562207 438.94543945 394.29541016 439.81884766 C392.83176021 444.50086948 392.83176021 444.50086948 392.0625 446.25 C391.0725 446.745 391.0725 446.745 390.0625 447.25 C389.24458984 445.9815625 389.24458984 445.9815625 388.41015625 444.6875 C379.19613453 430.69713757 368.58514897 422.97512236 352.9375 417 C352.29288818 416.75362793 351.64827637 416.50725586 350.98413086 416.25341797 C346.09605759 414.46345415 341.1618768 413.27723377 336.0625 412.25 C336.07821045 411.46987549 336.0939209 410.68975098 336.11010742 409.88598633 C336.17328907 406.27823428 336.2117516 402.67059925 336.25 399.0625 C336.28770508 397.22268555 336.28770508 397.22268555 336.32617188 395.34570312 C336.41684592 383.89054921 334.79835361 373.31074859 329.375 363.125 C329.02977295 362.4561377 328.6845459 361.78727539 328.32885742 361.09814453 C325.12810831 355.05880394 321.31026923 349.60144727 317.0625 344.25 C316.299375 343.198125 315.53625 342.14625 314.75 341.0625 C302.14811597 327.87448183 280.84752671 317.52220322 262.43025208 317.00517273 C260.82957902 316.99703555 259.22882801 316.99924538 257.62817383 317.01049805 C256.74372589 317.00848389 255.85927795 317.00646973 254.94802856 317.00439453 C253.04550805 317.00087549 251.14297577 317.00158308 249.24045753 317.00617027 C246.21515806 317.0118203 243.19023401 317.00251148 240.16496277 316.9889679 C231.56951154 316.95208341 222.97419053 316.93325314 214.37866211 316.94458008 C209.10196155 316.95047637 203.82579224 316.93195548 198.54920006 316.89869118 C196.55482151 316.89080994 194.56038392 316.89191372 192.56601906 316.90271568 C181.68115578 316.95912857 172.36424598 316.45063957 162.17533875 312.41902161 C149.48470219 307.65307337 133.88556926 309.88861291 121.0625 313.25 C119.45568359 314.01280273 119.45568359 314.01280273 117.81640625 314.79101562 C113.96194801 316.47033597 110.59681357 316.59378691 106.37890625 316.54296875 C105.67853745 316.53872391 104.97816864 316.53447906 104.25657654 316.53010559 C102.04564 316.51347156 99.83565543 316.4758518 97.625 316.4375 C96.11524765 316.42243326 94.60548084 316.40874836 93.09570312 316.39648438 C89.41766566 316.36361921 85.74017593 316.31194582 82.0625 316.25 C82.06195523 315.31922732 82.06141047 314.38845465 82.06084919 313.42947674 C82.04640812 290.70707377 82.00320336 267.98486136 81.93040943 245.26256847 C81.89586114 234.27390036 81.87041729 223.28535637 81.86694336 212.29663086 C81.86388927 202.71089991 81.84320591 193.12539061 81.80197543 183.53974515 C81.78077415 178.47138057 81.76797797 173.40333005 81.77634621 168.33492088 C81.78396867 163.54866862 81.76773626 158.7630484 81.73443985 153.97691154 C81.72630407 152.23528657 81.72633894 150.49359754 81.73590279 148.75197983 C81.85615914 124.41145258 74.31234455 103.4567618 58.0625 85.25 C47.86106895 75.45728013 35.48373172 69.33541655 22.0625 65.25 C20.85400391 64.87875 20.85400391 64.87875 19.62109375 64.5 C-1.56254558 59.19487989 -24.12485009 64.84979581 -42.7265625 75.1640625 C-48.43018812 78.86933753 -53.17128801 83.42610315 -57.9375 88.25 C-58.53175781 88.83394531 -59.12601563 89.41789062 -59.73828125 90.01953125 C-75.39801992 106.69229883 -79.23038597 129.28434227 -79.25634766 151.18408203 C-79.26565836 152.9884943 -79.27582871 154.7929023 -79.28678894 156.5973053 C-79.31397429 161.47051564 -79.3292042 166.34369726 -79.34221697 171.21696329 C-79.3578979 176.31922589 -79.38467221 181.42143026 -79.4102478 186.52365112 C-79.45694797 196.1741472 -79.49373439 205.82465433 -79.52692068 215.4752053 C-79.56520411 226.46679984 -79.61459791 237.45833578 -79.66490483 248.44988084 C-79.76809433 271.04988259 -79.85593038 293.64990917 -79.9375 316.25 C-102.0475 316.25 -124.1575 316.25 -146.9375 316.25 C-147.5975 314.27 -148.2575 312.29 -148.9375 310.25 C-148.4528125 309.75113281 -147.968125 309.25226563 -147.46875 308.73828125 C-126.43645565 286.20945827 -122.82100058 259.66717888 -123.68330383 230.22767639 C-124.63285883 203.61723445 -130.06430802 174.2786679 -141.3125 150 C-148.45734525 132.66104499 -139.46839793 105.73440181 -132.74804688 89.35009766 C-127.41953348 77.05955602 -121.4206316 65.63801709 -112.9375 55.25 C-112.4616748 54.65896484 -111.98584961 54.06792969 -111.49560547 53.45898438 C-83.93924168 19.46891403 -43.87958067 -0.32970978 0 0 Z " fill="#0B8FAC" transform="translate(998.9375,417.75)"/>
<path d="M0 0 C3.66065798 2.36339833 6.6924355 5.2822572 9 9 C9 9.66 9 10.32 9 11 C9.71542969 11.02578125 10.43085937 11.0515625 11.16796875 11.078125 C25.8473926 11.91369376 41.84038898 16.74697793 52 28 C77.10896552 59.58869856 84.23666129 105.68694036 84.5 144.875 C84.51566513 145.99612183 84.51566513 145.99612183 84.53164673 147.13989258 C84.78820705 170.54852087 76.34656108 188.29405618 60.0625 205.1875 C58.41015625 206.85546875 58.41015625 206.85546875 57 208 C56.34 208 55.68 208 55 208 C55.5775 209.17175781 56.155 210.34351563 56.75 211.55078125 C65.48422314 229.80882775 65.48422314 229.80882775 61.8125 240.4375 C59.80791585 243.27156724 57.90930581 245.10895122 55 247 C54.01 247 53.02 247 52 247 C65.6119945 275.1785964 83.31944985 295.38719863 113 307 C124.8568552 311.132207 135.99103019 312.23353412 148.4375 312.25 C149.53291107 312.25300613 149.53291107 312.25300613 150.65045166 312.256073 C171.61785768 312.30288486 171.61785768 312.30288486 192 308 C208.93184518 306.7815228 225.41040922 306.6607446 241 314 C242.04671875 314.46792969 243.0934375 314.93585938 244.171875 315.41796875 C250.16207978 318.37170232 254.89005234 322.25640441 259.7109375 326.8515625 C261.97581996 329.04333014 261.97581996 329.04333014 264.5234375 330.96484375 C281.62456507 345.01797855 292.69319988 369.15224934 302.3125 388.625 C315.19810992 414.67887349 329.75261115 439.29354386 348 462 C348.73347656 462.92554688 349.46695312 463.85109375 350.22265625 464.8046875 C355.85228811 471.81442312 361.82388168 478.47343293 368 485 C368.87527344 485.92941406 369.75054688 486.85882812 370.65234375 487.81640625 C393.85112321 511.76463233 423.20742441 529.06103234 457.0625 529.625 C468.0843684 529.56785486 477.14680734 527.90694889 487 523 C487.68771484 522.66258789 488.37542969 522.32517578 489.08398438 521.97753906 C531.73960333 500.57110172 560.69601552 450.26468838 575.78515625 406.69140625 C576.38650391 404.86416016 576.38650391 404.86416016 577 403 C577.41121094 401.75089844 577.82242188 400.50179688 578.24609375 399.21484375 C580.98020589 390.06644777 583.26948394 379.80845181 580.15234375 370.45703125 C576.19510422 363.30717135 569.02142347 359.90794328 561.44824219 357.66894531 C552.5876903 355.24793293 543.62843537 354.35073791 534.5 353.5625 C533.06875589 353.43427926 531.63752246 353.30593929 530.20629883 353.17749023 C521.97029539 352.45054125 513.7303534 351.82778434 505.48046875 351.28125 C439.53919797 346.9109055 439.53919797 346.9109055 411.3996582 334.2722168 C407.57782786 332.55712325 404.21188765 331.12713047 400 331 C397.46071918 332.02256753 395.29204736 333.03829055 392.9375 334.375 C381.82207723 340.5010457 366.32465836 341.38989454 353.984375 338.12890625 C350.81290653 336.96067209 347.95247196 335.64164057 345 334 C344.01773437 333.45730469 343.03546875 332.91460938 342.0234375 332.35546875 C328.74749984 324.42926877 320.17177609 312.96007878 316 298 C313.03588949 283.21870717 314.73932901 267.74550633 323 255 C332.31888783 242.66247857 344.53477956 233.40399783 359.875 230.1875 C361.2484088 230.09650811 362.62411657 230.03841908 364 230 C365.03769531 229.938125 366.07539062 229.87625 367.14453125 229.8125 C382.29658908 229.27791803 395.57068756 234.39362867 407.1875 244.0625 C417.67130581 253.99628102 423.95069006 266.92661481 424.46728516 281.31201172 C424.58269202 290.57384336 423.5157774 298.36453215 420 307 C419.62617187 307.93972656 419.25234375 308.87945313 418.8671875 309.84765625 C418.58101562 310.55792969 418.29484375 311.26820313 418 312 C424.29366077 314.14349316 430.61209877 316.15597879 437 318 C438.07765625 318.32097656 439.1553125 318.64195312 440.265625 318.97265625 C462.34753042 325.25787392 485.07571277 325.97391157 507.86889648 327.15405273 C574.32458447 330.62359553 574.32458447 330.62359553 593.125 348.3125 C602.46858763 358.71014436 605.51834415 369.81053292 605.24609375 383.53515625 C603.92637867 402.11590672 596.87041624 420.10843978 589.0234375 436.80908203 C588.0155468 438.96671828 587.036103 441.1353021 586.0625 443.30859375 C574.45731242 468.96634137 558.37712838 493.54636449 539 514 C538.10796875 514.95648437 537.2159375 515.91296875 536.296875 516.8984375 C521.75812146 532.17548711 504.1742414 543.70814447 484 550 C482.36611328 550.58974609 482.36611328 550.58974609 480.69921875 551.19140625 C463.85611111 556.66589311 443.97687398 555.55204094 427 551 C425.84757812 550.70609375 424.69515625 550.4121875 423.5078125 550.109375 C405.95437061 544.96241392 389.31024117 535.2837933 375 524 C374.05382813 523.26265625 373.10765625 522.5253125 372.1328125 521.765625 C357.3730938 509.97457493 343.72741823 496.80950004 332 482 C331.07876369 480.87861115 330.15548638 479.75889674 329.23046875 478.640625 C308.70306734 453.67459032 292.59442884 425.55298166 278.37231445 396.62109375 C270.38384154 380.371404 262.05133214 364.67989054 250 351 C249.39027344 350.29617188 248.78054688 349.59234375 248.15234375 348.8671875 C239.44338469 339.4607964 227.22549375 332.98445863 214.44921875 331.62109375 C202.69358175 331.26063406 191.18739195 333.22175994 179.6015625 335.02734375 C141.37526822 340.82976969 103.80602009 336.12199074 72.01977539 312.92480469 C54.70053826 299.83772132 40.72889989 283.64545207 32.15625 263.609375 C31.02041125 260.84638579 31.02041125 260.84638579 29 258 C28.401875 258.33 27.80375 258.66 27.1875 259 C25 260 25 260 22 260 C22 259.34 22 258.68 22 258 C21.154375 258 20.30875 258 19.4375 258 C14.20261444 256.4771242 11.91400088 253.51544533 9 249 C6.35056172 243.8067359 4.16033254 238.4106809 2 233 C1.29093506 233.02094727 0.58187012 233.04189453 -0.14868164 233.06347656 C-30.06905948 233.82998158 -48.33791684 226.77756919 -69.76171875 206.453125 C-77.38566086 199.09074617 -84.30301794 191.41610879 -90.59912109 182.89257812 C-92.09741049 180.86839908 -93.62110413 178.86468837 -95.14453125 176.859375 C-106.94888193 161.12551999 -116.75468302 144.3050209 -124 126 C-124.26796387 125.34725098 -124.53592773 124.69450195 -124.81201172 124.02197266 C-129.60470111 111.97517041 -129.72282705 97.49088921 -125.48046875 85.25390625 C-122.39296826 78.46792233 -118.2934873 71.2934873 -113 66 C-112.80490304 64.12606383 -112.80490304 64.12606383 -112.98046875 62 C-113.01333984 61.19981445 -113.04621094 60.39962891 -113.08007812 59.57519531 C-113.11552734 58.72538086 -113.15097656 57.87556641 -113.1875 57 C-113.3556336 47.99812724 -112.37006577 41.88307349 -106.203125 34.9921875 C-100.4879962 29.52852436 -94.06542096 25.86307919 -86.0625 25.5625 C-77.14649297 25.99102127 -69.4071607 28.64991868 -63 35 C-57.01473687 42.63006826 -54.96517892 50.3722343 -56 60 C-58.02923296 68.25059391 -62.33898654 74.69710943 -69.265625 79.60546875 C-75.44823294 82.99073108 -80.53254368 83.13299298 -87.375 82.8125 C-93.08070668 82.40093324 -93.08070668 82.40093324 -98.1953125 84.55078125 C-99.53634585 86.68278337 -100.30569238 88.58540154 -101 91 C-101.6496875 92.36125 -101.6496875 92.36125 -102.3125 93.75 C-106.62036975 114.11447517 -93.8897807 133.78348434 -83.30078125 150.26171875 C-74.40474125 163.70740597 -64.03777454 176.26443511 -53 188 C-52.34773437 188.70511719 -51.69546875 189.41023437 -51.0234375 190.13671875 C-39.64453927 202.03696093 -27.83465871 207.89142638 -11.45605469 208.29321289 C10.75120472 208.4769554 27.52208017 202.24150068 43.41015625 186.62109375 C44.69212891 185.32365234 44.69212891 185.32365234 46 184 C46.69996094 183.31035156 47.39992188 182.62070312 48.12109375 181.91015625 C57.59281844 171.94956835 60.38776949 159.33360769 60.3125 146 C60.30758545 144.95400635 60.3026709 143.9080127 60.29760742 142.83032227 C59.85883423 112.74848223 54.9062712 65.18790833 32.25 42.8125 C26.81343918 38.63549881 20.04820411 36.53466847 13.30859375 35.64453125 C10.8721833 35.76091792 10.8721833 35.76091792 9.515625 37.7578125 C9.09796875 38.53898438 8.6803125 39.32015625 8.25 40.125 C4.48128112 46.29287754 -0.43074973 49.2550332 -6.8125 52.375 C-15.28133936 54.03555674 -22.29500116 53.73343934 -29.87890625 49.42578125 C-32.65452618 47.56003305 -34.8348037 45.54728977 -37 43 C-37.70125 42.236875 -38.4025 41.47375 -39.125 40.6875 C-43.81713329 33.96210895 -45.04371977 27.12941731 -44 19 C-43.038115 15.74717383 -41.68755146 12.93511426 -40 10 C-39.49146484 9.05833984 -39.49146484 9.05833984 -38.97265625 8.09765625 C-30.39699708 -5.84923429 -13.44383945 -6.62543284 0 0 Z " fill="#0D8FAC" transform="translate(774,515)"/>
<path d="M0 0 C1.50566528 0.00858032 1.50566528 0.00858032 3.04174805 0.01733398 C18.0251879 0.37422561 29.5375384 5.62639417 40.5625 15.8125 C49.49975491 25.23455883 53.355985 36.14200049 53.1875 48.9375 C53.19910156 49.81470703 53.21070313 50.69191406 53.22265625 51.59570312 C53.16635384 64.32943116 48.34381933 76.06573972 39.5625 85.3125 C26.3805826 97.69685602 11.85366825 100.11239074 -5.61328125 99.8359375 C-19.31511429 99.27705606 -30.64485468 92.57494519 -40 82.75 C-50.39963222 70.02545 -52.66757858 55.40344438 -51.1875 39.5 C-50.34531755 35.50920363 -49.04696732 32.120764 -47.1875 28.5 C-46.75179687 27.64019531 -46.31609375 26.78039063 -45.8671875 25.89453125 C-39.32111129 14.07224607 -29.3443712 6.10498415 -16.50390625 1.83203125 C-10.9842008 0.26405053 -5.71596879 -0.03812898 0 0 Z " fill="#0E90AD" transform="translate(1032.1875,1292.5)"/>
<path d="M0 0 C8.45625 -0.0825 16.9125 -0.165 25.625 -0.25 C28.2645166 -0.28641602 30.9040332 -0.32283203 33.62353516 -0.36035156 C52.0224727 -0.5089034 68.4890901 1.03772271 82.75 14 C92.48658238 24.33091595 96.55112224 37.34386398 96.3125 51.2734375 C95.21984312 64.30337074 89.9694971 76.07849987 80.4765625 85.11328125 C67.96760288 94.64297761 54.43183619 97.17099173 39.16015625 97.09765625 C37.66687805 97.09614563 37.66687805 97.09614563 36.14343262 97.09460449 C32.44977658 97.08940038 28.75613704 97.07543924 25.0625 97.0625 C16.791875 97.041875 8.52125 97.02125 0 97 C0 64.99 0 32.98 0 0 Z " fill="#0E90AD" transform="translate(728,1294)"/>
<path d="M0 0 C4.95 0 9.9 0 15 0 C18.62866179 4.01789541 20.88749045 7.31216334 23.25 12 C23.93429268 13.25055706 24.62461851 14.4978294 25.32055664 15.74194336 C26.79946209 18.39836176 28.24897199 21.06815643 29.68212891 23.74951172 C33.28779084 30.43532891 37.24577592 36.91643211 41.15734863 43.42602539 C43.56123733 47.43793157 45.93481602 51.46787483 48.31059265 55.49647522 C49.81784389 58.04385063 51.35741178 60.53611768 53 63 C58.18476554 54.65668916 63.24069756 46.2517333 68.18554688 37.76403809 C70.02068098 34.61505739 71.86166381 31.46950257 73.703125 28.32421875 C74.06772827 27.7014505 74.43233154 27.07868225 74.8079834 26.43704224 C78.17568447 20.69029092 81.57606646 14.96343764 85 9.25 C85.49790039 8.41718506 85.99580078 7.58437012 86.50878906 6.72631836 C86.95963867 5.97616455 87.41048828 5.22601074 87.875 4.453125 C88.26429688 3.80504883 88.65359375 3.15697266 89.0546875 2.48925781 C90 1 90 1 91 0 C95.95 0 100.9 0 106 0 C106 32.01 106 64.02 106 97 C100.39 97 94.78 97 89 97 C88.67 76.54 88.34 56.08 88 35 C78.13732982 51.43318557 78.13732982 51.43318557 68.2890625 67.875 C67.66515625 68.91785156 67.04125 69.96070313 66.3984375 71.03515625 C65.16043477 73.10485685 63.9235435 75.17522249 62.6875 77.24609375 C61.77871094 78.76396484 61.77871094 78.76396484 60.8515625 80.3125 C60.05999756 81.63701172 60.05999756 81.63701172 59.25244141 82.98828125 C58 85 58 85 57 86 C52.03504557 86.8415177 52.03504557 86.8415177 49 86 C47.56079102 84.45361328 47.56079102 84.45361328 46.25390625 82.3203125 C45.74335693 81.50159668 45.23280762 80.68288086 44.70678711 79.83935547 C44.14354736 78.90236816 43.58030762 77.96538086 43 77 C42.35877197 75.95859863 41.71754395 74.91719727 41.05688477 73.84423828 C38.89646082 70.32255202 36.75817033 66.78821853 34.625 63.25 C33.53556985 61.44667039 32.44553769 59.64370704 31.35507202 57.84100342 C30.36018359 56.19573918 29.36680122 54.5495645 28.37353516 52.90332031 C24.93876664 47.25478307 21.46474017 41.63020277 18 36 C17.67 56.13 17.34 76.26 17 97 C11.39 97 5.78 97 0 97 C0 64.99 0 32.98 0 0 Z " fill="#0C8FAC" transform="translate(503,1294)"/>
<path d="M0 0 C15 0 15 0 18.484375 2.3515625 C19.23203125 3.43179687 19.9796875 4.51203125 20.75 5.625 C21.17861328 6.20894531 21.60722656 6.79289062 22.04882812 7.39453125 C22.94792968 8.62212552 23.8281456 9.86376355 24.68945312 11.11816406 C26.82495649 14.18456867 29.17399204 17.07730616 31.5 20 C32.416914 21.17689068 33.33358092 22.35397389 34.25 23.53125 C36.91762325 26.92640686 39.69177663 30.22082924 42.5 33.5 C47.22453559 39.02024684 51.74067033 44.68158091 56.19921875 50.41796875 C59.76215189 54.97474655 63.38654458 59.48318072 67 64 C67.33 42.88 67.66 21.76 68 0 C73.94 0 79.88 0 86 0 C86 32.01 86 64.02 86 97 C71 97 71 97 67.296875 94.4296875 C65.97436523 92.73413086 65.97436523 92.73413086 64.75 90.875 C64.2744165 90.24408447 63.79883301 89.61316895 63.30883789 88.96313477 C62.32276487 87.64972919 61.35590701 86.32167969 60.40869141 84.97998047 C58.62595055 82.47425632 56.72766099 80.07433999 54.81347656 77.66845703 C53.43420737 75.93335792 52.07418918 74.18432513 50.71484375 72.43359375 C47.63046108 68.49620212 44.38736283 64.70265392 41.13354492 60.90527344 C37.27578648 56.38034242 33.59231696 51.73215553 29.96679688 47.01953125 C26.46675652 42.49706798 22.79030692 38.33177933 19 34 C18.67 54.79 18.34 75.58 18 97 C12.06 97 6.12 97 0 97 C0 64.99 0 32.98 0 0 Z " fill="#0D90AC" transform="translate(1217,1294)"/>
<path d="M0 0 C15 0 15 0 19.0703125 3.15625 C20.13622695 4.5694307 21.15347218 6.02034227 22.125 7.5 C23.28193562 9.07206844 24.43950248 10.64367251 25.59765625 12.21484375 C26.16242676 13.01647949 26.72719727 13.81811523 27.30908203 14.64404297 C29.89837335 18.25170414 32.73044661 21.64466636 35.5625 25.0625 C36.63313475 26.37888891 37.70214482 27.69660084 38.76953125 29.015625 C42.09409185 33.11642243 45.42147546 37.21491955 48.75 41.3125 C49.28939209 41.97677002 49.82878418 42.64104004 50.38452148 43.32543945 C54.30553531 48.15199642 58.24371388 52.96405988 62.1953125 57.765625 C63.84385713 59.80668026 65.42580238 61.90106984 67 64 C67.33 42.88 67.66 21.76 68 0 C73.94 0 79.88 0 86 0 C86 32.01 86 64.02 86 97 C71 97 71 97 66.25 92.875 C64.79586622 90.94432425 63.38188501 88.98302993 62 87 C60.69170203 85.30265287 59.35909664 83.62636052 58.02441406 81.94970703 C56.60955693 80.16805337 55.21456683 78.37202202 53.8203125 76.57421875 C51.13415978 73.13902483 48.33768832 69.8103836 45.5 66.5 C41.21841425 61.5001194 37.11400343 56.38689489 33.07885742 51.18652344 C29.12736847 46.11001226 24.99400866 41.20609406 20.80078125 36.328125 C19 34 19 34 19 32 C18.34 32 17.68 32 17 32 C17 53.45 17 74.9 17 97 C11.39 97 5.78 97 0 97 C0 64.99 0 32.98 0 0 Z " fill="#0D8FAC" transform="translate(1105,1294)"/>
<path d="M0 0 C23.43 0 46.86 0 71 0 C71 4.95 71 9.9 71 15 C53.51 15 36.02 15 18 15 C18 23.25 18 31.5 18 40 C33.51 40 49.02 40 65 40 C65 44.95 65 49.9 65 55 C49.49 55 33.98 55 18 55 C18 63.91 18 72.82 18 82 C36.15 82 54.3 82 73 82 C73 86.95 73 91.9 73 97 C48.91 97 24.82 97 0 97 C0 64.99 0 32.98 0 0 Z " fill="#0C8FAC" transform="translate(1329,1294)"/>
<path d="M0 0 C23.43 0 46.86 0 71 0 C71 4.95 71 9.9 71 15 C53.51 15 36.02 15 18 15 C18 23.25 18 31.5 18 40 C33.51 40 49.02 40 65 40 C65 44.95 65 49.9 65 55 C49.49 55 33.98 55 18 55 C18 63.91 18 72.82 18 82 C36.15 82 54.3 82 73 82 C73 86.95 73 91.9 73 97 C48.91 97 24.82 97 0 97 C0 64.99 0 32.98 0 0 Z " fill="#0D90AC" transform="translate(635,1294)"/>
<path d="M0 0 C7.67934139 4.63146719 13.64104985 11.09001318 16.625 19.62890625 C18.99723146 30.76356766 17.76142787 40.93832402 11.96484375 50.734375 C7.51020526 57.33567773 0.87634591 62.20683039 -6.75 64.5625 C-18.23507387 65.76642862 -28.80978552 65.23622267 -38.4375 58.5 C-45.12110447 52.96148861 -49.78575064 45.2558106 -50.75 36.5625 C-51.67576013 25.32319344 -49.73959838 16.37918565 -42.6640625 7.453125 C-31.70288874 -3.37383031 -14.14009103 -6.57087671 0 0 Z " fill="#FDFEFE" transform="translate(1049.75,1311.4375)"/>
<path d="M0 0 C39.78378378 0 39.78378378 0 50 9 C58.27492216 17.92820549 59.83617101 26.48184748 59.47265625 38.24609375 C58.8766583 46.62492844 55.25866762 53.16417363 49.3125 59 C35.41380559 69.95858598 16.32970386 67 0 67 C0 44.89 0 22.78 0 0 Z " fill="#FBFDFD" transform="translate(746,1309)"/>
<path d="M0 0 C2.72976925 1.95126101 4.91954546 4.01454735 7.13671875 6.52734375 C5.68890082 9.9716264 3.85977266 11.88865337 1.01171875 14.27734375 C0.28726562 14.8909375 -0.4371875 15.50453125 -1.18359375 16.13671875 C-1.73789063 16.595625 -2.2921875 17.05453125 -2.86328125 17.52734375 C-6.79998127 16.21511041 -9.63711781 14.32089451 -12.82421875 11.74609375 C-21.03071892 6.84105916 -33.61877728 7.1181111 -42.75390625 9.1796875 C-51.25537311 12.6426976 -57.83257418 19.38433635 -61.86328125 27.52734375 C-65.16252619 35.53979574 -64.97799503 44.99881308 -62.42578125 53.21484375 C-59.11071703 61.1547703 -53.48553485 67.51192486 -45.92578125 71.65234375 C-36.9308764 75.21229905 -25.18081672 75.18701267 -16.11328125 71.83984375 C-13.20899255 70.45257183 -10.89715092 68.83892094 -8.48828125 66.71484375 C-5.86328125 64.52734375 -5.86328125 64.52734375 -3.99609375 64.63671875 C-1.1741389 65.81511748 0.64808972 67.5158198 2.88671875 69.58984375 C3.6859375 70.32332031 4.48515625 71.05679687 5.30859375 71.8125 C6.21351562 72.66134766 6.21351562 72.66134766 7.13671875 73.52734375 C3.09507872 82.45343027 -6.11622745 86.23244128 -14.86328125 89.52734375 C-29.96358214 93.0715111 -46.60829848 91.69348083 -59.91015625 83.6953125 C-71.65040903 75.65165283 -78.93348115 65.43440643 -82.359375 51.57421875 C-84.93329322 36.0109923 -81.83090869 22.38094308 -72.86328125 9.52734375 C-55.44646809 -12.57861142 -22.63669095 -14.32563534 0 0 Z " fill="#0F91AD" transform="translate(1497.86328125,1301.47265625)"/>
<path d="M0 0 C2.72976925 1.95126101 4.91954546 4.01454735 7.13671875 6.52734375 C5.68890082 9.9716264 3.85977266 11.88865337 1.01171875 14.27734375 C0.28726563 14.8909375 -0.4371875 15.50453125 -1.18359375 16.13671875 C-1.73789062 16.595625 -2.2921875 17.05453125 -2.86328125 17.52734375 C-6.79998127 16.21511041 -9.63711781 14.32089451 -12.82421875 11.74609375 C-21.03071892 6.84105916 -33.61877728 7.1181111 -42.75390625 9.1796875 C-51.25537311 12.6426976 -57.83257418 19.38433635 -61.86328125 27.52734375 C-65.16252619 35.53979574 -64.97799503 44.99881308 -62.42578125 53.21484375 C-59.11071703 61.1547703 -53.48553485 67.51192486 -45.92578125 71.65234375 C-36.9308764 75.21229905 -25.18081672 75.18701267 -16.11328125 71.83984375 C-13.20899255 70.45257183 -10.89715092 68.83892094 -8.48828125 66.71484375 C-5.86328125 64.52734375 -5.86328125 64.52734375 -3.99609375 64.63671875 C-1.1741389 65.81511748 0.64808972 67.5158198 2.88671875 69.58984375 C3.6859375 70.32332031 4.48515625 71.05679687 5.30859375 71.8125 C6.21351563 72.66134766 6.21351563 72.66134766 7.13671875 73.52734375 C3.09507872 82.45343027 -6.11622745 86.23244128 -14.86328125 89.52734375 C-29.96358214 93.0715111 -46.60829848 91.69348083 -59.91015625 83.6953125 C-71.65040903 75.65165283 -78.93348115 65.43440643 -82.359375 51.57421875 C-84.93329322 36.0109923 -81.83090869 22.38094308 -72.86328125 9.52734375 C-55.44646809 -12.57861142 -22.63669095 -14.32563534 0 0 Z " fill="#0F91AD" transform="translate(962.86328125,1301.47265625)"/>
<path d="M0 0 C27.39 0 54.78 0 83 0 C83 4.95 83 9.9 83 15 C72.44 15 61.88 15 51 15 C51 42.06 51 69.12 51 97 C44.73 97 38.46 97 32 97 C32 69.94 32 42.88 32 15 C21.44 15 10.88 15 0 15 C0 10.05 0 5.1 0 0 Z " fill="#1292AE" transform="translate(1510,1294)"/>
<path d="M0 0 C5.94 0 11.88 0 18 0 C18 32.01 18 64.02 18 97 C12.06 97 6.12 97 0 97 C0 64.99 0 32.98 0 0 Z " fill="#0D90AC" transform="translate(843,1294)"/>
<path d="M0 0 C0.33 0 0.66 0 1 0 C1 21.12 1 42.24 1 64 C0.67 64 0.34 64 0 64 C-0.495 35.29 -0.495 35.29 -1 6 C-1.99 6.495 -1.99 6.495 -3 7 C-1.125 2.25 -1.125 2.25 0 0 Z " fill="#DBEEF3" transform="translate(591,1327)"/>
</svg>
